HIERARCHY
ROOT Hips
{
	OFFSET 0.000000 0.000000 0.000000
	CHANNELS 6 Xposition Yposition Zposition Xrotation Yrotation Zrotation
	JOINT LeftUpLeg_virtual
	{
		OFFSET 0.000000 0.000000 0.000000
		CHANNELS 3 Xrotation Yrotation Zrotation
		JOINT LeftUpLeg
		{
			OFFSET 10.205400 -3.823500 0.155100
			CHANNELS 3 Xrotation Yrotation Zrotation
			JOINT LeftLeg
			{
				OFFSET 0.708757 -12.982077 0.567790
				CHANNELS 3 Xrotation Yrotation Zrotation
				JOINT LeftFoot
				{
					OFFSET -0.708756 -10.717838 -2.184338
					CHANNELS 3 Xrotation Yrotation Zrotation
					JOINT LeftToeBase
					{
						OFFSET 0.108149 -7.191104 7.560241
						CHANNELS 3 Xrotation Yrotation Zrotation
						JOINT LeftToe_End
						{
							OFFSET 0.070230 0.081724 4.490308
							CHANNELS 3 Xrotation Yrotation Zrotation
							End Site
							{
								OFFSET 0 0 0
							}
						}
					}
				}
			}
		}
	}
	JOINT RightUpLeg_virtual
	{
		OFFSET 0.000000 0.000000 0.000000
		CHANNELS 3 Xrotation Yrotation Zrotation
		JOINT RightUpLeg
		{
			OFFSET -10.205400 -3.823500 0.005500
			CHANNELS 3 Xrotation Yrotation Zrotation
			JOINT RightLeg
			{
				OFFSET -0.708756 -12.982134 0.610632
				CHANNELS 3 Xrotation Yrotation Zrotation
				JOINT RightFoot
				{
					OFFSET 0.708754 -10.717769 -1.945823
					CHANNELS 3 Xrotation Yrotation Zrotation
					JOINT RightToeBase
					{
						OFFSET -0.108140 -7.191069 7.372968
						CHANNELS 3 Xrotation Yrotation Zrotation
						JOINT RightToe_End
						{
							OFFSET -0.070227 0.081735 4.479403
							CHANNELS 3 Xrotation Yrotation Zrotation
							End Site
							{
								OFFSET 0 0 0
							}
						}
					}
				}
			}
		}
	}
	JOINT Spine_virtual
	{
		OFFSET 0.000000 0.000000 0.000000
		CHANNELS 3 Xrotation Yrotation Zrotation
		JOINT Spine
		{
			OFFSET 0.000000 6.876099 0.125700
			CHANNELS 3 Xrotation Yrotation Zrotation
			JOINT Spine1
			{
				OFFSET 0.000000 5.730043 0.104720
				CHANNELS 3 Xrotation Yrotation Zrotation
				JOINT Spine1_split
				{
					OFFSET 0.000000 5.730043 0.104720
					CHANNELS 3 Xrotation Yrotation Zrotation
					JOINT Spine2
					{
						OFFSET 0.000000 5.730043 0.104720
						CHANNELS 3 Xrotation Yrotation Zrotation
						JOINT Neck_virtual
						{
							OFFSET 0.000000 0.000000 0.000000
							CHANNELS 3 Xrotation Yrotation Zrotation
							JOINT Neck
							{
								OFFSET 0.000000 10.314075 0.188496
								CHANNELS 3 Xrotation Yrotation Zrotation
								JOINT Head
								{
									OFFSET 0.000000 7.643700 -2.377400
									CHANNELS 3 Xrotation Yrotation Zrotation
									JOINT HeadTop_End
									{
										OFFSET 0.000000 43.788605 -13.619600
										CHANNELS 3 Xrotation Yrotation Zrotation
										End Site
										{
											OFFSET 0 0 0
										}
									}
								}
							}
						}
						JOINT LeftShoulder_virtual
						{
							OFFSET 0.000000 0.000000 0.000000
							CHANNELS 3 Xrotation Yrotation Zrotation
							JOINT LeftShoulder
							{
								OFFSET 2.196100 4.412489 0.087492
								CHANNELS 3 Xrotation Yrotation Zrotation
								JOINT LeftShoulder_split
								{
									OFFSET 2.196100 4.412489 0.087492
									CHANNELS 3 Xrotation Yrotation Zrotation
									JOINT LeftArm
									{
										OFFSET 8.771219 -2.981674 -0.026999
										CHANNELS 3 Xrotation Yrotation Zrotation
										JOINT LeftForeArm
										{
											OFFSET 8.512804 0.000000 -0.000000
											CHANNELS 3 Xrotation Yrotation Zrotation
											JOINT LeftHand
											{
												OFFSET 18.484802 0.000000 -0.000000
												CHANNELS 3 Xrotation Yrotation Zrotation
												End Site
												{
													OFFSET 0 0 0
												}
											}
										}
									}
								}
							}
						}
						JOINT RightShoulder_virtual
						{
							OFFSET 0.000000 0.000000 0.000000
							CHANNELS 3 Xrotation Yrotation Zrotation
							JOINT RightShoulder
							{
								OFFSET -2.196100 4.412496 0.070690
								CHANNELS 3 Xrotation Yrotation Zrotation
								JOINT RightShoulder_split
								{
									OFFSET -2.196100 4.412496 0.070690
									CHANNELS 3 Xrotation Yrotation Zrotation
									JOINT RightArm
									{
										OFFSET -8.771282 -2.981682 -0.094208
										CHANNELS 3 Xrotation Yrotation Zrotation
										JOINT RightForeArm
										{
											OFFSET -8.494598 0.000000 0.000000
											CHANNELS 3 Xrotation Yrotation Zrotation
											JOINT RightHand
											{
												OFFSET -18.483803 0.000000 0.000001
												CHANNELS 3 Xrotation Yrotation Zrotation
												End Site
												{
													OFFSET 0 0 0
												}
											}
										}
									}
								}
							}
						}
					}
				}
			}
		}
	}
}
MOTION
Frames: 5
Frame Time: 0.03333333
5.917971 29.145012 1.650946 0.000000 0.000000 0.000000 9.426479 -1.744228 -10.029662 -54.210115 -11.971903 32.336981 59.618577 -5.888052 -5.000496 -8.193356 3.692454 -17.518356 -2.031477 -0.196751 1.116503 0.000000 0.000000 0.000000 10.037853 -0.519060 -10.754288 -21.942003 -23.398181 3.472352 45.687542 9.132171 0.458856 -30.263270 -18.686846 -6.565155 0.977164 0.084891 -1.116882 0.000000 0.000000 0.000000 8.243350 0.734877 -11.157265 7.719824 -3.563411 -7.256105 5.383456 -1.735064 -6.269703 1.150443 1.190298 0.518028 0.000000 0.000000 0.000000 7.767129 -1.807662 -6.397529 -6.822682 0.243412 -6.895026 -29.489198 -12.395169 13.110783 0.000000 0.000000 0.000000 6.624538 -1.544097 -6.094475 0.811506 -5.553915 -7.978265 -0.739306 -4.164596 0.525871 -26.826423 7.601210 -19.294159 2.499255 -59.375647 2.451780 0.000000 0.000000 0.000000 6.367115 -1.889528 -6.057099 1.857213 -2.045783 3.950701 6.480255 3.954750 -3.199691 24.773429 -8.909724 81.665703 9.106300 80.371321 -8.224894 0.000000 0.000000 0.000000 
5.960191 28.883951 1.333973 0.000000 0.000000 0.000000 9.148452 -2.941513 -9.335456 -54.327560 -11.916427 31.956170 60.959828 -4.845021 -4.969288 -9.005230 4.274119 -17.618425 -1.585564 -0.102587 1.136642 0.000000 0.000000 0.000000 9.651495 -1.529176 -10.043048 -24.103440 -21.743004 3.533682 47.845571 8.045237 0.366732 -30.795581 -19.119183 -7.197794 0.996306 0.235932 -1.146867 0.000000 0.000000 0.000000 7.934997 -0.581154 -10.561073 8.528520 -3.158871 -6.796841 5.938912 -1.480915 -5.984164 1.263901 1.166579 0.607424 0.000000 0.000000 0.000000 8.052989 -1.581534 -6.129679 -5.952759 0.030163 -6.717306 -28.586326 -12.023628 12.784767 0.000000 0.000000 0.000000 7.033354 -1.370024 -5.979472 0.849285 -5.668951 -8.849257 -0.646092 -4.207540 0.730523 -24.023022 12.041606 -22.850608 2.029892 -57.050787 2.121320 0.000000 0.000000 0.000000 6.931696 -1.629317 -5.772514 1.853345 -0.893037 4.700894 6.113961 3.552042 -3.136803 21.727136 -5.884697 80.093701 6.644917 76.520699 -5.829347 0.000000 0.000000 0.000000 
5.935631 28.743761 1.043888 0.000000 0.000000 0.000000 8.864640 -3.990129 -8.724443 -54.062310 -11.791601 31.573308 61.565693 -3.668550 -5.047885 -9.758419 4.837064 -17.660694 -1.271506 0.002209 0.969050 0.000000 0.000000 0.000000 9.168596 -2.568959 -9.377844 -25.932837 -20.234765 3.647093 49.349326 7.061867 0.383513 -30.926680 -19.349755 -7.595899 1.301095 0.394660 -1.154640 0.000000 0.000000 0.000000 7.590750 -2.100535 -9.974211 9.172890 -2.821102 -6.474423 6.357388 -1.272982 -5.736983 1.390126 1.166353 0.535223 0.000000 0.000000 0.000000 8.183357 -1.398217 -5.872984 -5.243417 -0.040799 -6.584458 -27.103902 -11.486074 12.600793 0.000000 0.000000 0.000000 7.276990 -1.215996 -5.886655 0.890472 -5.720409 -9.665122 -0.755755 -3.900773 0.966964 -21.196795 15.214407 -26.892217 1.469218 -53.702181 1.710076 0.000000 0.000000 0.000000 7.376933 -1.398085 -5.536818 1.806183 0.177480 5.491477 5.670299 3.332023 -2.976677 18.720256 -3.062255 78.268654 5.239185 72.890768 -4.521134 0.000000 0.000000 0.000000 
5.866674 28.719744 0.814930 0.000000 0.000000 0.000000 8.474698 -4.945821 -8.223666 -53.454348 -11.732892 31.241886 61.698431 -2.598597 -5.154527 -10.227209 5.200570 -17.772629 -1.095220 0.103522 0.636632 0.000000 0.000000 0.000000 8.657822 -3.606508 -8.829088 -27.332327 -18.846246 3.948574 50.129583 6.277725 0.399509 -30.392286 -19.388226 -7.582689 1.384842 0.531577 -1.120111 0.000000 0.000000 0.000000 7.188176 -3.791034 -9.414845 9.571639 -2.543792 -6.282590 6.581648 -1.114950 -5.542400 1.409813 1.274209 0.349032 0.000000 0.000000 0.000000 8.102220 -1.251915 -5.661648 -4.648044 -0.034210 -6.489160 -25.020783 -10.893942 12.606408 0.000000 0.000000 0.000000 7.322109 -1.092189 -5.822326 0.931477 -5.664633 -10.419180 -0.956704 -3.476000 1.127336 -18.449512 16.990982 -31.005459 0.972653 -49.809875 1.341203 0.000000 0.000000 0.000000 7.632819 -1.193103 -5.370052 1.722861 1.105347 6.349184 5.358747 3.337146 -2.758148 15.808130 -0.480251 76.441333 4.305768 69.487271 -3.700089 0.000000 0.000000 0.000000 
5.773954 28.796917 0.622892 0.000000 0.000000 0.000000 7.900149 -5.906848 -7.870029 -52.406566 -11.762583 31.001959 61.550106 -1.725437 -5.223371 -10.439432 5.314101 -17.728748 -1.004026 0.176890 0.282425 0.000000 0.000000 0.000000 8.091284 -4.696585 -8.402634 -28.174083 -17.474715 4.522264 49.987726 5.664984 0.352306 -29.210486 -19.254754 -7.394827 1.127076 0.592649 -1.016985 0.000000 0.000000 0.000000 6.679293 -5.591298 -8.919867 9.662301 -2.306008 -6.191583 6.596434 -1.006678 -5.406570 1.426453 1.532132 0.151245 0.000000 0.000000 0.000000 7.789588 -1.136573 -5.511956 -4.053926 -0.006705 -6.381655 -22.248742 -10.343918 12.811469 0.000000 0.000000 0.000000 7.178985 -1.002729 -5.784902 0.967775 -5.508952 -11.142238 -1.399671 -3.002101 1.090918 -15.904423 17.447793 -34.780713 0.676092 -46.014213 1.104718 0.000000 0.000000 0.000000 7.641270 -1.019797 -5.282381 1.632739 1.848330 7.242659 5.169546 3.487882 -2.609437 13.088415 1.926722 74.770054 3.637808 66.414075 -3.126507 0.000000 0.000000 0.000000 
